# xmcd
#
# Track frame offsets:
#	183
#	17173
#	30455
#
# Disc length: 673 seconds
#
# Revision: 1
# Processed by: cddbd v1.5.2PL0 Copyright (c) Steve Scherf et al.
# Submitted via: dBpowerAMP V4.0
#
DISCID=18029f03
DTITLE=Joshua Kadison - Eddy Gee
DYEAR=1999
DGENRE=
TTITLE0=Beautiful In My Eyes
TTITLE1=Painted Desert Serenade
TTITLE2=All I Ever Ask (Previously Unavailable)
EXTD=
EXTT0=
EXTT1=
EXTT2=
PLAYORDER=
